<svg id="svg" xmlns="http://www.w3.org/2000/svg" xmlns:xlink="http://www.w3.org/1999/xlink" width="400" height="224.89019033674964" viewBox="0, 0, 400,224.89019033674964"><g id="svgg"><path id="path0" d="M130.779 99.436 C 128.195 100.918,126.402 104.670,123.951 113.723 C 123.717 114.589,123.327 116.007,123.086 116.873 C 122.844 117.739,122.329 119.612,121.942 121.035 C 121.555 122.458,121.185 123.799,121.121 124.016 C 121.023 124.347,121.155 124.409,121.949 124.409 C 122.518 124.409,123.200 124.599,123.664 124.885 C 124.608 125.469,124.469 125.655,125.186 122.835 C 125.517 121.535,126.039 119.511,126.347 118.335 C 126.655 117.160,127.051 115.618,127.229 114.910 C 131.384 98.309,134.631 97.735,139.024 112.823 C 139.420 114.184,139.944 116.007,140.189 116.873 C 143.137 127.312,146.130 131.023,150.333 129.449 C 153.291 128.341,154.918 124.928,158.043 113.273 C 160.647 103.561,162.734 100.288,165.342 101.828 C 167.138 102.889,168.629 106.379,171.192 115.523 C 174.229 126.357,176.708 129.998,180.468 129.150 C 183.114 128.553,186.006 123.493,187.419 116.985 C 187.632 116.006,187.766 115.517,189.089 110.911 C 191.092 103.933,192.867 101.012,195.104 101.012 C 197.950 101.012,199.545 104.022,203.274 116.423 C 206.067 125.711,208.253 128.909,211.811 128.909 C 214.750 128.909,217.147 126.339,221.883 118.110 C 224.119 114.225,223.860 114.390,224.860 116.217 C 230.533 126.576,233.071 129.323,236.753 129.087 C 240.862 128.823,243.002 125.560,246.238 114.623 C 249.241 104.474,251.006 101.330,253.445 101.788 C 255.158 102.109,256.857 105.635,258.709 112.711 C 259.081 114.134,259.646 116.159,259.964 117.210 C 260.283 118.262,260.731 119.781,260.962 120.585 C 262.470 125.857,262.248 125.469,263.411 124.875 C 263.913 124.619,264.662 124.409,265.076 124.409 L 265.828 124.409 263.604 117.604 C 262.381 113.861,261.175 110.141,260.924 109.336 C 257.844 99.476,253.058 96.186,249.092 101.204 C 247.295 103.477,246.272 106.228,243.977 114.961 C 240.146 129.540,236.023 131.708,229.842 122.395 C 225.532 115.902,224.256 113.641,224.592 113.092 C 225.169 112.150,225.347 111.849,226.416 110.007 C 227.025 108.957,228.435 106.580,229.549 104.724 C 230.663 102.868,231.720 101.097,231.899 100.787 L 232.224 100.225 231.749 100.787 C 231.149 101.499,229.016 104.888,225.874 110.127 C 223.980 113.284,224.027 113.247,223.392 112.092 C 222.381 110.257,216.388 100.792,216.139 100.639 C 215.855 100.463,216.440 101.557,218.443 104.949 C 220.409 108.278,221.895 110.876,222.932 112.795 L 223.647 114.116 221.795 117.182 C 217.107 124.946,215.037 127.439,212.793 128.031 C 209.453 128.911,206.925 125.544,204.498 116.985 C 200.720 103.657,198.936 100.155,195.703 99.721 C 191.944 99.217,189.744 102.722,186.512 114.361 C 183.471 125.311,181.259 128.805,178.461 127.076 C 176.648 125.955,175.159 122.536,173.111 114.792 C 169.943 102.809,167.873 99.199,164.180 99.218 C 160.667 99.236,158.604 102.438,155.705 112.373 C 153.472 120.031,153.043 121.330,152.051 123.435 C 149.560 128.725,146.997 127.981,144.608 121.273 C 144.137 119.953,143.969 119.373,142.291 113.273 C 140.546 106.934,140.155 105.765,138.921 103.195 C 137.027 99.250,133.746 97.735,130.779 99.436 M120.672 125.968 C 118.598 126.858,118.770 130.223,120.927 130.935 C 123.543 131.799,125.613 128.688,123.783 126.641 C 123.107 125.883,121.618 125.562,120.672 125.968 M263.587 126.436 C 261.681 128.109,262.734 130.993,265.264 131.030 C 266.298 131.045,266.470 130.970,267.171 130.206 C 269.416 127.757,266.080 124.247,263.587 126.436 " stroke="none" fill="#f7f5f8" fill-rule="evenodd"></path><path id="path1" d="M0.000 112.486 L 0.000 224.972 200.000 224.972 L 400.000 224.972 400.000 112.486 L 400.000 0.000 200.000 0.000 L 0.000 0.000 0.000 112.486 M135.657 99.028 C 136.697 99.574,138.531 101.645,139.135 102.957 C 139.326 103.372,139.631 104.041,139.813 104.443 C 140.382 105.699,142.254 111.699,142.533 113.161 C 142.616 113.594,142.757 114.049,142.846 114.173 C 142.935 114.297,143.137 115.006,143.294 115.748 C 144.819 122.928,147.544 127.556,149.573 126.413 C 150.516 125.881,152.756 122.100,152.756 121.041 C 152.756 120.889,152.902 120.446,153.081 120.056 C 153.260 119.667,153.560 118.791,153.748 118.110 C 153.936 117.430,154.354 115.962,154.677 114.848 C 155.001 113.735,155.417 112.267,155.602 111.586 C 158.350 101.488,161.775 97.486,166.117 99.300 C 167.637 99.935,170.754 104.398,170.754 105.940 C 170.754 106.150,170.847 106.418,170.961 106.535 C 171.074 106.653,171.338 107.357,171.545 108.099 C 171.753 108.841,172.165 110.309,172.461 111.361 C 172.757 112.413,173.160 113.931,173.358 114.736 C 173.555 115.540,173.805 116.400,173.913 116.648 C 174.021 116.895,174.225 117.553,174.366 118.110 C 176.197 125.335,178.953 128.689,181.228 126.462 C 182.688 125.033,184.643 120.426,185.821 115.636 C 185.958 115.079,186.160 114.421,186.270 114.173 C 186.380 113.926,186.591 113.166,186.740 112.486 C 186.889 111.805,187.085 111.147,187.177 111.024 C 187.268 110.900,187.471 110.252,187.627 109.585 C 187.784 108.917,188.050 108.107,188.218 107.785 C 188.386 107.463,188.524 107.054,188.525 106.876 C 188.526 106.699,188.729 106.117,188.976 105.583 C 189.224 105.049,189.641 104.150,189.903 103.586 C 192.016 99.036,195.755 98.063,198.807 101.269 C 199.494 101.991,201.575 105.860,201.575 106.416 C 201.575 106.562,201.720 107.000,201.898 107.390 C 202.337 108.352,202.971 110.487,204.380 115.748 C 204.578 116.490,204.827 117.300,204.931 117.548 C 205.036 117.795,205.395 118.858,205.729 119.910 C 206.360 121.894,207.563 124.722,208.026 125.309 C 209.170 126.758,209.616 127.179,210.417 127.566 C 212.924 128.778,215.372 126.932,219.081 121.035 C 220.900 118.144,221.600 116.996,222.171 115.973 C 222.516 115.354,222.938 114.683,223.108 114.482 C 223.376 114.164,223.322 113.954,222.700 112.907 C 222.306 112.242,221.762 111.294,221.490 110.799 C 221.219 110.304,220.785 109.544,220.525 109.111 C 220.265 108.678,219.853 107.970,219.609 107.537 C 219.365 107.103,218.346 105.333,217.344 103.603 C 215.417 100.273,215.347 100.112,215.829 100.112 C 216.165 100.112,216.490 100.511,217.661 102.362 C 218.092 103.043,218.545 103.751,218.669 103.937 C 219.948 105.853,223.172 111.112,223.172 111.282 C 223.172 111.343,223.315 111.536,223.489 111.711 C 223.664 111.885,223.853 112.156,223.909 112.313 C 224.040 112.682,223.863 112.939,226.427 108.661 C 229.807 103.023,231.732 100.112,232.081 100.112 C 232.591 100.112,232.348 100.743,231.040 102.812 C 230.103 104.293,228.191 107.520,226.605 110.296 L 224.708 113.617 225.322 114.682 C 226.302 116.380,229.675 121.754,230.087 122.272 C 230.185 122.396,230.647 123.022,231.114 123.663 C 234.797 128.725,238.295 128.777,240.706 123.806 C 241.697 121.762,241.710 121.728,242.516 119.010 C 242.901 117.711,243.355 116.192,243.524 115.636 C 243.694 115.079,243.895 114.319,243.971 113.948 C 244.299 112.356,245.825 107.228,246.515 105.399 C 248.448 100.277,250.951 98.212,254.313 98.964 C 257.410 99.657,259.596 103.443,262.316 112.823 C 262.710 114.184,263.165 115.602,263.326 115.973 C 263.488 116.344,263.694 116.999,263.784 117.428 C 263.875 117.857,264.036 118.363,264.141 118.553 C 264.372 118.967,265.842 123.439,265.952 124.062 C 266.017 124.430,265.849 124.533,264.923 124.692 C 264.314 124.797,263.540 125.080,263.201 125.321 C 262.275 125.980,262.045 125.689,261.418 123.060 C 261.256 122.379,261.039 121.670,260.937 121.485 C 260.834 121.299,260.600 120.591,260.417 119.910 C 260.234 119.229,259.818 117.762,259.493 116.648 C 259.168 115.534,258.717 113.915,258.490 113.048 C 257.623 109.733,257.333 108.751,257.018 108.065 C 256.839 107.675,256.693 107.229,256.693 107.074 C 256.693 106.633,255.367 103.938,254.754 103.135 C 253.197 101.094,251.563 101.847,249.731 105.452 C 249.353 106.196,249.044 106.878,249.044 106.968 C 249.044 107.058,248.902 107.450,248.729 107.840 C 248.412 108.556,247.795 110.466,246.683 114.173 C 244.118 122.731,242.393 126.501,240.374 127.961 C 235.569 131.435,231.165 128.762,226.370 119.460 C 226.211 119.151,225.833 118.493,225.531 117.998 C 225.228 117.503,224.910 116.946,224.824 116.760 C 224.229 115.475,223.172 115.213,223.172 116.351 C 223.172 116.566,220.862 120.535,220.484 120.969 C 220.354 121.119,220.247 121.299,220.247 121.370 C 220.247 121.932,216.522 126.901,215.382 127.860 C 214.014 129.011,211.110 129.820,210.704 129.163 C 210.638 129.055,210.286 128.907,209.922 128.835 C 207.836 128.418,205.637 124.859,203.713 118.785 C 203.380 117.733,202.971 116.468,202.805 115.973 C 202.638 115.478,202.390 114.618,202.254 114.061 C 202.118 113.504,201.919 112.846,201.812 112.598 C 201.706 112.351,201.231 110.934,200.757 109.450 C 200.283 107.966,199.717 106.401,199.498 105.972 C 199.279 105.543,199.100 105.061,199.100 104.902 C 199.100 104.742,199.011 104.612,198.902 104.612 C 198.794 104.612,198.588 104.330,198.445 103.986 C 196.288 98.777,192.138 101.231,189.970 108.999 C 189.798 109.618,189.565 110.326,189.453 110.574 C 189.341 110.821,188.930 112.289,188.539 113.836 C 187.099 119.543,185.601 124.112,184.703 125.534 C 184.585 125.720,184.331 126.185,184.137 126.567 C 182.915 128.979,180.064 130.147,177.855 129.140 C 176.849 128.682,174.803 126.625,174.803 126.072 C 174.803 125.900,174.702 125.759,174.578 125.759 C 174.454 125.759,174.353 125.658,174.353 125.535 C 174.353 125.412,174.056 124.678,173.693 123.904 C 173.330 123.130,172.961 122.193,172.875 121.822 C 172.788 121.451,172.642 121.046,172.552 120.922 C 172.461 120.799,172.257 120.141,172.098 119.460 C 171.939 118.780,171.725 118.071,171.623 117.885 C 171.520 117.700,171.274 116.940,171.076 116.198 C 170.877 115.456,170.481 114.038,170.194 113.048 C 169.908 112.058,169.502 110.641,169.293 109.899 C 169.084 109.156,168.835 108.448,168.739 108.324 C 168.644 108.200,168.499 107.820,168.418 107.479 C 167.825 104.995,165.461 101.687,164.280 101.687 C 162.436 101.687,160.521 105.150,158.805 111.586 C 157.682 115.803,157.494 116.504,157.149 117.773 C 154.572 127.250,151.743 130.785,147.497 129.835 C 144.949 129.264,142.453 125.692,141.035 120.585 C 140.880 120.028,140.683 119.471,140.597 119.348 C 140.512 119.224,140.320 118.566,140.171 117.885 C 140.022 117.205,139.810 116.445,139.701 116.198 C 139.591 115.951,139.389 115.292,139.252 114.736 C 139.000 113.711,138.565 112.269,137.521 108.999 C 135.792 103.580,133.648 101.133,132.150 102.868 C 131.553 103.559,130.709 104.787,130.709 104.963 C 130.709 105.042,130.559 105.425,130.375 105.815 C 129.593 107.480,128.328 111.679,126.875 117.435 C 125.646 122.307,124.796 125.397,124.631 125.597 C 124.552 125.693,124.216 125.559,123.886 125.300 C 123.517 125.010,122.807 124.778,122.047 124.699 C 120.647 124.555,120.583 124.421,121.135 122.786 C 121.314 122.256,121.570 121.316,121.704 120.697 C 121.837 120.079,122.012 119.421,122.092 119.235 C 122.171 119.049,122.414 118.240,122.631 117.435 C 122.848 116.631,123.276 115.062,123.583 113.948 C 123.889 112.835,124.305 111.316,124.508 110.574 C 124.710 109.831,124.963 109.021,125.069 108.774 C 125.176 108.526,125.542 107.514,125.883 106.524 C 126.570 104.532,127.659 102.230,128.144 101.745 C 128.317 101.572,128.459 101.352,128.459 101.256 C 128.459 100.625,130.503 99.125,132.283 98.451 C 132.923 98.208,134.664 98.506,135.657 99.028 M123.403 125.988 C 124.713 126.798,125.160 128.319,124.498 129.715 C 123.462 131.898,120.183 131.898,119.147 129.715 C 117.867 127.019,120.848 124.409,123.403 125.988 M266.812 125.905 C 267.547 126.339,268.166 127.515,268.166 128.478 C 268.166 130.729,265.518 132.132,263.647 130.871 C 260.515 128.760,263.560 123.984,266.812 125.905 " stroke="none" fill="#74449b" fill-rule="evenodd"></path><path id="path2" d="M121.431 125.693 C 121.711 125.747,122.116 125.745,122.331 125.689 C 122.546 125.633,122.317 125.589,121.822 125.591 C 121.327 125.594,121.151 125.640,121.431 125.693 M264.848 125.689 C 265.065 125.746,265.419 125.746,265.636 125.689 C 265.852 125.633,265.675 125.587,265.242 125.587 C 264.809 125.587,264.632 125.633,264.848 125.689 M215.846 127.165 L 215.186 127.897 215.917 127.236 C 216.319 126.872,216.648 126.543,216.648 126.505 C 216.648 126.331,216.462 126.484,215.846 127.165 M231.046 126.505 C 231.046 126.543,231.375 126.872,231.777 127.236 L 232.508 127.897 231.848 127.165 C 231.232 126.484,231.046 126.331,231.046 126.505 " stroke="none" fill="#a287bc" fill-rule="evenodd"></path><path id="path3" d="M132.905 98.472 C 133.185 98.526,133.590 98.524,133.805 98.467 C 134.020 98.411,133.791 98.367,133.296 98.369 C 132.801 98.372,132.625 98.418,132.905 98.472 M252.587 98.921 C 252.866 98.975,253.321 98.975,253.600 98.921 C 253.878 98.868,253.650 98.824,253.093 98.824 C 252.537 98.824,252.309 98.868,252.587 98.921 M136.783 100.000 C 137.203 100.433,137.597 100.787,137.659 100.787 C 137.720 100.787,137.428 100.433,137.008 100.000 C 136.588 99.567,136.194 99.213,136.132 99.213 C 136.070 99.213,136.363 99.567,136.783 100.000 M191.774 100.844 L 191.114 101.575 191.845 100.914 C 192.247 100.551,192.576 100.222,192.576 100.183 C 192.576 100.009,192.390 100.162,191.774 100.844 M260.330 107.098 C 260.462 107.476,260.611 107.743,260.662 107.692 C 260.774 107.580,260.349 106.412,260.197 106.412 C 260.139 106.412,260.199 106.721,260.330 107.098 M256.816 107.593 C 256.900 107.871,257.061 108.198,257.174 108.319 C 257.287 108.440,257.266 108.212,257.127 107.813 C 256.842 106.995,256.579 106.810,256.816 107.593 M122.092 119.179 C 121.917 119.490,121.671 120.698,121.811 120.559 C 121.978 120.392,122.387 119.010,122.270 119.010 C 122.224 119.010,122.144 119.086,122.092 119.179 M232.508 125.534 C 232.992 126.029,233.438 126.434,233.500 126.434 C 233.562 126.434,233.217 126.029,232.733 125.534 C 232.250 125.039,231.804 124.634,231.742 124.634 C 231.680 124.634,232.025 125.039,232.508 125.534 M215.061 126.378 L 214.286 127.222 215.129 126.446 C 215.915 125.725,216.076 125.534,215.905 125.534 C 215.867 125.534,215.487 125.914,215.061 126.378 M147.906 126.530 C 148.146 126.725,148.551 126.875,148.806 126.865 C 149.177 126.849,149.150 126.810,148.668 126.664 C 148.337 126.564,147.932 126.414,147.768 126.329 C 147.604 126.245,147.666 126.335,147.906 126.530 M118.837 128.459 C 118.837 128.892,118.884 129.069,118.940 128.853 C 118.997 128.636,118.997 128.282,118.940 128.065 C 118.884 127.849,118.837 128.026,118.837 128.459 M124.687 128.459 C 124.687 128.892,124.733 129.069,124.789 128.853 C 124.846 128.636,124.846 128.282,124.789 128.065 C 124.733 127.849,124.687 128.026,124.687 128.459 M210.722 129.190 C 210.855 129.407,212.629 129.404,212.971 129.187 C 213.114 129.096,212.643 129.021,211.925 129.021 C 211.206 129.021,210.665 129.097,210.722 129.190 M235.942 129.518 C 236.222 129.572,236.627 129.570,236.842 129.513 C 237.057 129.457,236.828 129.413,236.333 129.416 C 235.838 129.418,235.662 129.464,235.942 129.518 M148.200 129.968 C 148.479 130.021,148.934 130.021,149.213 129.968 C 149.491 129.914,149.263 129.870,148.706 129.870 C 148.150 129.870,147.922 129.914,148.200 129.968 " stroke="none" fill="#8c69ac" fill-rule="evenodd"></path><path id="path4" d="M132.905 98.697 C 133.185 98.751,133.590 98.749,133.805 98.692 C 134.020 98.636,133.791 98.592,133.296 98.594 C 132.801 98.597,132.625 98.643,132.905 98.697 M163.723 99.146 C 164.002 99.200,164.457 99.200,164.736 99.146 C 165.014 99.093,164.786 99.049,164.229 99.049 C 163.673 99.049,163.445 99.093,163.723 99.146 M254.218 99.149 C 254.404 99.218,254.834 99.415,255.174 99.587 C 255.515 99.759,255.793 99.848,255.793 99.787 C 255.793 99.610,254.498 98.986,254.173 99.005 C 253.977 99.017,253.992 99.064,254.218 99.149 M137.008 100.450 C 137.428 100.883,137.822 101.237,137.884 101.237 C 137.945 101.237,137.653 100.883,137.233 100.450 C 136.813 100.017,136.419 99.663,136.357 99.663 C 136.295 99.663,136.588 100.017,137.008 100.450 M160.618 100.731 L 159.843 101.575 160.686 100.800 C 161.471 100.078,161.633 99.888,161.461 99.888 C 161.424 99.888,161.044 100.267,160.618 100.731 M256.018 99.958 C 256.018 99.997,256.347 100.326,256.749 100.689 L 257.480 101.350 256.820 100.619 C 256.204 99.937,256.018 99.784,256.018 99.958 M215.748 100.437 C 215.748 100.800,216.067 101.069,216.264 100.872 C 216.439 100.696,216.197 100.112,215.949 100.112 C 215.838 100.112,215.748 100.258,215.748 100.437 M231.510 100.768 C 231.090 101.357,231.083 101.417,231.439 101.361 C 231.675 101.324,231.805 101.142,231.762 100.908 C 231.723 100.693,231.782 100.574,231.893 100.642 C 232.005 100.711,232.096 100.620,232.096 100.440 C 232.096 99.989,232.044 100.018,231.510 100.768 M132.200 102.380 C 131.873 102.637,131.488 103.067,131.344 103.336 C 131.200 103.605,131.441 103.445,131.878 102.981 C 132.869 101.931,133.551 101.897,134.694 102.841 L 135.546 103.544 134.705 102.728 C 133.743 101.794,133.064 101.700,132.200 102.380 M253.787 101.969 C 253.839 101.999,254.184 102.278,254.556 102.587 L 255.231 103.150 254.685 102.531 C 254.385 102.191,254.039 101.912,253.917 101.912 C 253.794 101.912,253.735 101.938,253.787 101.969 M251.141 102.643 C 250.891 102.922,250.605 103.301,250.507 103.487 C 250.317 103.845,250.369 103.796,251.280 102.756 C 251.578 102.416,251.771 102.137,251.709 102.137 C 251.648 102.137,251.392 102.365,251.141 102.643 M229.989 103.109 C 229.906 103.244,229.969 103.259,230.150 103.147 C 230.366 103.014,230.408 103.066,230.304 103.338 C 230.111 103.841,230.300 103.815,230.576 103.300 C 230.816 102.852,230.259 102.672,229.989 103.109 M200.241 104.049 C 200.241 104.173,200.386 104.528,200.562 104.837 C 200.739 105.146,200.884 105.298,200.884 105.174 C 200.884 105.051,200.739 104.696,200.562 104.387 C 200.386 104.078,200.241 103.926,200.241 104.049 M199.257 105.172 C 199.462 105.603,199.671 105.916,199.719 105.867 C 199.822 105.764,199.139 104.387,198.985 104.387 C 198.929 104.387,199.051 104.740,199.257 105.172 M158.734 110.590 C 158.651 110.919,158.627 111.233,158.680 111.286 C 158.733 111.339,158.844 111.112,158.927 110.783 C 159.009 110.453,159.034 110.140,158.981 110.087 C 158.928 110.034,158.816 110.260,158.734 110.590 M261.449 110.911 C 261.449 111.097,261.536 111.451,261.642 111.699 C 261.764 111.982,261.836 112.024,261.836 111.811 C 261.836 111.625,261.749 111.271,261.642 111.024 C 261.520 110.740,261.449 110.698,261.449 110.911 M203.181 112.486 C 203.181 112.672,203.268 113.026,203.375 113.273 C 203.496 113.557,203.568 113.599,203.568 113.386 C 203.568 113.200,203.481 112.846,203.375 112.598 C 203.253 112.315,203.181 112.273,203.181 112.486 M186.630 113.289 C 186.547 113.619,186.523 113.932,186.576 113.985 C 186.629 114.038,186.740 113.812,186.823 113.482 C 186.906 113.153,186.930 112.839,186.877 112.786 C 186.824 112.733,186.713 112.960,186.630 113.289 M139.064 113.386 C 139.064 113.571,139.151 113.926,139.258 114.173 C 139.379 114.457,139.451 114.498,139.451 114.286 C 139.451 114.100,139.364 113.746,139.258 113.498 C 139.136 113.215,139.064 113.173,139.064 113.386 M157.609 114.639 C 157.526 114.969,157.502 115.282,157.555 115.335 C 157.608 115.388,157.719 115.162,157.802 114.832 C 157.884 114.502,157.909 114.189,157.856 114.136 C 157.803 114.083,157.692 114.310,157.609 114.639 M259.424 115.861 C 259.424 116.046,259.511 116.400,259.618 116.648 C 259.739 116.932,259.811 116.973,259.811 116.760 C 259.811 116.575,259.724 116.220,259.618 115.973 C 259.496 115.689,259.424 115.648,259.424 115.861 M185.730 116.439 C 185.648 116.769,185.623 117.082,185.676 117.135 C 185.729 117.188,185.840 116.962,185.923 116.632 C 186.006 116.302,186.030 115.989,185.977 115.936 C 185.924 115.883,185.813 116.109,185.730 116.439 M203.181 116.535 C 203.181 116.721,203.268 117.075,203.375 117.323 C 203.496 117.606,203.568 117.648,203.568 117.435 C 203.568 117.250,203.481 116.895,203.375 116.648 C 203.253 116.364,203.181 116.323,203.181 116.535 M126.575 117.238 C 126.496 117.634,126.473 117.999,126.524 118.050 C 126.575 118.101,126.686 117.824,126.772 117.435 C 126.857 117.046,126.880 116.681,126.823 116.624 C 126.765 116.567,126.654 116.843,126.575 117.238 M226.293 116.873 C 226.414 117.120,226.679 117.525,226.880 117.773 L 227.246 118.223 227.026 117.773 C 226.904 117.525,226.640 117.120,226.438 116.873 L 226.072 116.423 226.293 116.873 M243.098 117.564 C 243.015 117.894,242.991 118.207,243.044 118.260 C 243.097 118.313,243.208 118.086,243.291 117.757 C 243.374 117.427,243.398 117.114,243.345 117.061 C 243.292 117.008,243.181 117.234,243.098 117.564 M156.709 118.014 C 156.626 118.344,156.602 118.657,156.655 118.710 C 156.708 118.763,156.819 118.536,156.902 118.207 C 156.985 117.877,157.009 117.564,156.956 117.511 C 156.903 117.458,156.792 117.684,156.709 118.014 M125.663 120.713 C 125.580 121.043,125.556 121.356,125.609 121.409 C 125.662 121.462,125.773 121.236,125.856 120.906 C 125.938 120.577,125.963 120.263,125.910 120.210 C 125.857 120.157,125.746 120.384,125.663 120.713 M242.095 120.835 C 241.956 121.232,241.882 121.597,241.930 121.645 C 241.978 121.693,242.131 121.407,242.270 121.010 C 242.408 120.612,242.482 120.248,242.434 120.200 C 242.386 120.151,242.233 120.437,242.095 120.835 M185.852 121.960 C 185.713 122.357,185.639 122.722,185.687 122.770 C 185.735 122.818,185.888 122.532,186.027 122.135 C 186.165 121.737,186.239 121.372,186.191 121.324 C 186.143 121.276,185.990 121.562,185.852 121.960 M243.231 123.182 C 242.854 124.009,242.926 124.186,243.334 123.433 C 243.524 123.082,243.638 122.753,243.586 122.701 C 243.535 122.650,243.375 122.866,243.231 123.182 M265.371 123.060 C 265.454 123.369,265.615 123.774,265.730 123.960 C 265.875 124.194,265.892 124.125,265.788 123.735 C 265.705 123.425,265.544 123.020,265.429 122.835 C 265.284 122.600,265.266 122.669,265.371 123.060 M230.596 123.510 C 230.860 123.881,231.127 124.184,231.189 124.184 C 231.251 124.184,231.085 123.881,230.821 123.510 C 230.557 123.138,230.290 122.835,230.228 122.835 C 230.166 122.835,230.332 123.138,230.596 123.510 M217.773 124.634 C 217.508 125.006,217.343 125.309,217.405 125.309 C 217.467 125.309,217.733 125.006,217.998 124.634 C 218.262 124.263,218.428 123.960,218.366 123.960 C 218.304 123.960,218.037 124.263,217.773 124.634 M120.978 124.427 C 121.180 124.611,123.576 124.851,123.394 124.669 C 123.325 124.600,122.715 124.483,122.039 124.409 C 121.362 124.334,120.885 124.343,120.978 124.427 M184.633 124.975 C 184.428 125.406,184.306 125.759,184.362 125.759 C 184.516 125.759,185.199 124.382,185.096 124.279 C 185.047 124.230,184.839 124.543,184.633 124.975 M232.387 125.591 C 233.319 126.584,233.521 126.762,233.521 126.594 C 233.521 126.557,233.040 126.077,232.452 125.525 L 231.384 124.522 232.387 125.591 M153.768 125.984 C 153.576 126.355,153.470 126.659,153.532 126.659 C 153.594 126.659,153.801 126.355,153.993 125.984 C 154.185 125.613,154.292 125.309,154.230 125.309 C 154.168 125.309,153.960 125.613,153.768 125.984 M215.511 126.153 L 214.736 126.997 215.579 126.221 C 216.365 125.500,216.526 125.309,216.355 125.309 C 216.317 125.309,215.937 125.689,215.511 126.153 M146.682 125.605 C 146.682 125.643,147.011 125.972,147.413 126.336 L 148.144 126.997 147.483 126.265 C 146.867 125.584,146.682 125.431,146.682 125.605 M208.201 125.974 C 208.599 126.621,209.334 127.374,209.786 127.600 C 210.052 127.732,209.981 127.609,209.611 127.298 C 209.267 127.008,208.761 126.514,208.486 126.199 C 208.211 125.883,208.083 125.782,208.201 125.974 M208.099 127.447 C 208.519 127.880,208.913 128.234,208.975 128.234 C 209.037 128.234,208.744 127.880,208.324 127.447 C 207.904 127.013,207.510 126.659,207.448 126.659 C 207.386 126.659,207.679 127.013,208.099 127.447 M152.423 127.953 C 151.940 128.540,151.777 128.819,152.062 128.571 C 152.565 128.134,153.542 126.884,153.381 126.884 C 153.337 126.884,152.906 127.365,152.423 127.953 M182.452 128.050 C 181.895 128.558,181.642 128.866,181.890 128.736 C 182.313 128.512,183.775 127.098,183.563 127.118 C 183.509 127.123,183.009 127.543,182.452 128.050 M237.683 127.455 C 237.312 127.625,237.166 127.768,237.359 127.774 C 237.551 127.779,237.906 127.635,238.146 127.454 C 238.679 127.050,238.565 127.051,237.683 127.455 M262.446 127.913 C 262.363 128.242,262.339 128.555,262.392 128.608 C 262.445 128.661,262.556 128.435,262.639 128.105 C 262.721 127.776,262.746 127.463,262.693 127.410 C 262.640 127.357,262.529 127.583,262.446 127.913 M119.062 128.459 C 119.062 128.892,119.109 129.069,119.165 128.853 C 119.222 128.636,119.222 128.282,119.165 128.065 C 119.109 127.849,119.062 128.026,119.062 128.459 M124.462 128.459 C 124.462 128.892,124.508 129.069,124.565 128.853 C 124.621 128.636,124.621 128.282,124.565 128.065 C 124.508 127.849,124.462 128.026,124.462 128.459 M211.530 128.164 C 211.746 128.221,212.101 128.221,212.317 128.164 C 212.534 128.107,212.357 128.061,211.924 128.061 C 211.490 128.061,211.313 128.107,211.530 128.164 M211.420 129.068 C 211.700 129.122,212.105 129.120,212.320 129.063 C 212.535 129.007,212.306 128.963,211.811 128.966 C 211.316 128.968,211.140 129.014,211.420 129.068 M150.169 129.479 C 149.798 129.649,149.646 129.789,149.831 129.791 C 150.017 129.792,150.422 129.648,150.731 129.471 C 151.442 129.065,151.062 129.070,150.169 129.479 M235.942 129.293 C 236.222 129.347,236.627 129.345,236.842 129.288 C 237.057 129.232,236.828 129.188,236.333 129.191 C 235.838 129.193,235.662 129.239,235.942 129.293 " stroke="none" fill="#b49ccc" fill-rule="evenodd"></path></g></svg>