<?xml version="1.0" standalone="no"?>
<!DOCTYPE svg PUBLIC "-//W3C//DTD SVG 20010904//EN"
 "http://www.w3.org/TR/2001/REC-SVG-20010904/DTD/svg10.dtd">
<svg version="1.0" xmlns="http://www.w3.org/2000/svg"
 width="1366.000000pt" height="768.000000pt" viewBox="0 0 1366.000000 768.000000"
 preserveAspectRatio="xMidYMid meet">
<metadata>
Created by potrace 1.15, written by Peter Selinger 2001-2017
</metadata>
<g transform="translate(0.000000,768.000000) scale(0.100000,-0.100000)"
fill="#000000" stroke="none">
<path d="M0 3840 l0 -3840 6830 0 6830 0 0 3840 0 3840 -6830 0 -6830 0 0
-3840z m4630 455 c47 -24 107 -102 140 -182 17 -41 52 -148 76 -236 106 -383
155 -500 216 -521 79 -28 129 75 268 548 45 152 95 270 136 319 64 77 144 97
218 53 91 -53 133 -149 247 -559 82 -299 150 -410 230 -377 62 26 118 141 189
391 126 442 186 549 309 549 52 0 89 -18 131 -66 56 -64 87 -145 200 -529 70
-238 139 -356 216 -371 99 -18 160 39 334 320 78 126 90 152 82 170 -6 11 -66
118 -135 236 -69 118 -123 217 -121 219 9 10 60 -66 262 -392 l23 -39 103 169
c56 92 114 187 129 210 25 39 47 62 47 48 0 -3 -49 -88 -108 -188 -60 -100
-119 -201 -132 -224 l-23 -42 53 -88 c191 -314 280 -406 373 -389 96 18 150
122 241 463 55 206 79 280 116 359 32 66 88 130 129 146 36 14 107 11 141 -7
40 -21 96 -90 129 -160 23 -49 231 -669 231 -689 0 -3 -10 -6 -23 -6 -12 0
-39 -9 -60 -19 -20 -10 -39 -16 -41 -12 -3 5 -35 115 -152 516 -19 66 -46 145
-60 175 -51 111 -109 139 -165 79 -51 -55 -79 -125 -194 -493 -95 -303 -176
-409 -311 -408 -116 1 -197 84 -359 370 -32 57 -61 105 -65 107 -4 3 -44 -57
-89 -133 -142 -239 -216 -323 -298 -338 -53 -10 -113 12 -158 60 -67 69 -101
150 -215 516 -101 322 -171 417 -269 364 -65 -36 -109 -139 -200 -471 -84
-303 -136 -414 -217 -460 -93 -54 -182 -6 -253 135 -33 66 -72 182 -136 407
-57 197 -95 290 -141 344 -45 52 -83 55 -124 11 -52 -56 -86 -143 -162 -420
-64 -235 -100 -335 -148 -408 -48 -75 -91 -102 -159 -102 -62 0 -97 16 -139
65 -61 69 -94 150 -187 466 -95 320 -144 415 -211 407 -64 -7 -115 -133 -224
-548 -34 -129 -63 -236 -64 -238 -2 -1 -19 5 -39 13 -20 8 -48 15 -62 15 -14
0 -25 4 -25 10 0 15 118 438 151 540 92 283 208 388 349 315z m-413 -920 c12
-8 27 -31 33 -50 20 -60 -27 -125 -91 -125 -90 0 -129 124 -55 175 27 19 86
19 113 0z m4907 -10 c21 -19 26 -33 26 -69 0 -37 -5 -48 -31 -70 -40 -34 -88
-34 -126 -2 -23 20 -28 32 -28 71 0 39 5 51 28 71 38 33 95 33 131 -1z"/>
</g>
</svg>
